P2
15 15
255
255
255
255
255
255
255
255
255
255
255
255
255
255
255
255
255
255
255
255
3
0
0
0
0
0
1
255
255
255
255
255
255
255
0
0
0
0
0
0
0
0
0
255
255
255
255
255
0
255
255
255
255
255
255
255
255
255
0
255
255
255
0
0
255
255
246
247
255
248
244
255
255
0
0
255
255
0
2
255
255
255
255
255
255
255
255
255
2
0
255
255
0
255
254
255
255
255
255
255
255
255
255
255
0
255
1
0
255
255
255
255
255
255
255
255
255
255
255
0
1
255
0
255
255
255
255
255
255
255
255
255
255
255
0
255
255
0
0
255
255
255
255
255
255
255
255
255
4
0
255
255
0
255
0
255
255
252
255
252
255
255
255
0
0
255
255
0
255
255
0
255
249
255
250
255
0
0
0
255
255
255
255
0
255
255
255
255
255
255
255
0
0
3
255
255
255
255
255
0
0
255
255
255
255
255
0
255
255
255
255
255
255
255
255
255
255
255
255
255
255
255
255
255
255
255
